<svg width="48" height="18" viewBox="0 0 48 18" fill="none" xmlns="http://www.w3.org/2000/svg">
<rect width="48" height="18" rx="4" fill="#FC0808"/>
<path d="M5.284 13V5.17599H7.048V11.512H10.528V13H5.284Z" fill="white"/>
<path d="M12.0833 13V11.512H13.9073V6.664H12.0833V5.17599H17.5073V6.664H15.6833V11.512H17.5073V13H12.0833Z" fill="white"/>
<path d="M20.9346 13L18.5706 5.17599H20.4426L21.3786 8.82399C21.4986 9.25599 21.6026 9.67599 21.6906 10.084C21.7866 10.484 21.8906 10.9 22.0026 11.332H22.0506C22.1786 10.9 22.2866 10.484 22.3746 10.084C22.4706 9.67599 22.5746 9.25599 22.6866 8.82399L23.6106 5.17599H25.4106L23.0586 13H20.9346Z" fill="white"/>
<path d="M26.6899 13V5.17599H31.8739V6.664H28.4659V8.23599H31.3579V9.71199H28.4659V11.512H31.9939V13H26.6899Z" fill="white"/>
<path d="M42.5 8.13397C43.1667 8.51887 43.1667 9.48113 42.5 9.86603L38 12.4641C37.3333 12.849 36.5 12.3679 36.5 11.5981L36.5 6.40192C36.5 5.63212 37.3333 5.151 38 5.5359L42.5 8.13397Z" fill="white"/>
</svg>
