<svg width="450" height="502" viewBox="0 0 450 502" fill="none" xmlns="http://www.w3.org/2000/svg">
<path d="M142.59 112.35H112.45L97.3901 138.45L112.45 164.55H142.59L157.66 138.45L142.59 112.35Z" fill="#1F6CE0"/>
<path d="M142.59 56.2H112.45L97.3901 82.3L112.45 108.4H142.59L157.66 82.3L142.59 56.2Z" fill="#D9DEE2"/>
<path d="M142.59 168.54H112.45L97.3901 194.64L112.45 220.74H142.59L157.66 194.64L142.59 168.54Z" fill="#1F6CE0"/>
<path d="M142.59 224.73H112.45L97.3901 250.82L112.45 276.92H142.59L157.66 250.82L142.59 224.73Z" fill="#1F6CE0"/>
<path d="M142.57 280.94H112.44L97.3701 307.04L112.44 333.13H142.57L157.64 307.04L142.57 280.94Z" fill="#1F6CE0"/>
<path d="M142.57 337.14H112.44L97.3701 363.24L112.44 389.34H142.57L157.64 363.24L142.57 337.14Z" fill="#1F6CE0"/>
<path d="M45.22 112.35H15.08L0.0100098 138.45L15.08 164.55H45.22L60.28 138.45L45.22 112.35Z" fill="#D9DEE2"/>
<path d="M45.22 168.54H15.08L0.0100098 194.64L15.08 220.74H45.22L60.28 194.64L45.22 168.54Z" fill="#D9DEE2"/>
<path d="M45.22 224.73H15.08L0.0100098 250.82L15.08 276.92H45.22L60.28 250.82L45.22 224.73Z" fill="#D9DEE2"/>
<path d="M45.2 280.94H15.06L0 307.04L15.06 333.13H45.2L60.27 307.04L45.2 280.94Z" fill="#D9DEE2"/>
<path d="M45.2 337.14H15.06L0 363.24L15.06 389.34H45.2L60.27 363.24L45.2 337.14Z" fill="#D9DEE2"/>
<path d="M142.57 393.35H112.44L97.3701 419.45L112.44 445.54H142.57L157.64 419.45L142.57 393.35Z" fill="#D9DEE2"/>
<path d="M239.82 112.35H209.69L194.62 138.45L209.69 164.55H239.82L254.89 138.45L239.82 112.35Z" fill="#D9DEE2"/>
<path d="M239.82 56.2H209.69L194.62 82.3L209.69 108.4H239.82L254.89 82.3L239.82 56.2Z" fill="#D9DEE2"/>
<path d="M239.82 0H209.69L194.62 26.1L209.69 52.2H239.82L254.89 26.1L239.82 0Z" fill="#D9DEE2"/>
<path d="M239.82 168.54H209.69L194.62 194.64L209.69 220.74H239.82L254.89 194.64L239.82 168.54Z" fill="#1F6CE0"/>
<path d="M239.82 224.73H209.69L194.62 250.82L209.69 276.92H239.82L254.89 250.82L239.82 224.73Z" fill="#33A3BB"/>
<path d="M239.8 280.94H209.67L194.6 307.04L209.67 333.13H239.8L254.87 307.04L239.8 280.94Z" fill="#33A3BB"/>
<path d="M239.8 337.14H209.67L194.6 363.24L209.67 389.34H239.8L254.87 363.24L239.8 337.14Z" fill="#3FC399"/>
<path d="M239.8 393.35H209.67L194.6 419.45L209.67 445.54H239.8L254.87 419.45L239.8 393.35Z" fill="#3FC399"/>
<path d="M337.06 112.35H306.92L291.85 138.45L306.92 164.55H337.06L352.12 138.45L337.06 112.35Z" fill="#4AE68D"/>
<path d="M337.06 56.2H306.92L291.85 82.3L306.92 108.4H337.06L352.12 82.3L337.06 56.2Z" fill="#D9DEE2"/>
<path d="M337.06 168.54H306.92L291.85 194.64L306.92 220.74H337.06L352.12 194.64L337.06 168.54Z" fill="#4AE68D"/>
<path d="M337.06 224.73H306.92L291.85 250.82L306.92 276.92H337.06L352.12 250.82L337.06 224.73Z" fill="#4AE68D"/>
<path d="M337.04 280.94H306.9L291.84 307.04L306.9 333.13H337.04L352.11 307.04L337.04 280.94Z" fill="#4AE68D"/>
<path d="M337.04 337.14H306.9L291.84 363.24L306.9 389.34H337.04L352.11 363.24L337.04 337.14Z" fill="#4AE68D"/>
<path d="M434.34 112.35H404.2L389.13 138.45L404.2 164.55H434.34L449.4 138.45L434.34 112.35Z" fill="#D9DEE2"/>
<path d="M434.34 168.54H404.2L389.13 194.64L404.2 220.74H434.34L449.4 194.64L434.34 168.54Z" fill="#D9DEE2"/>
<path d="M434.34 224.73H404.2L389.13 250.82L404.2 276.92H434.34L449.4 250.82L434.34 224.73Z" fill="#D9DEE2"/>
<path d="M434.32 280.94H404.18L389.11 307.04L404.18 333.13H434.32L449.38 307.04L434.32 280.94Z" fill="#D9DEE2"/>
<path d="M434.32 337.14H404.18L389.11 363.24L404.18 389.34H434.32L449.38 363.24L434.32 337.14Z" fill="#D9DEE2"/>
<path d="M337.04 393.35H306.9L291.84 419.45L306.9 445.54H337.04L352.11 419.45L337.04 393.35Z" fill="#D9DEE2"/>
<path d="M239.8 449.48H209.67L194.6 475.58L209.67 501.67H239.8L254.87 475.58L239.8 449.48Z" fill="#D9DEE2"/>
<path d="M191.17 140.45H161.04L145.97 166.55L161.04 192.64H191.17L206.24 166.55L191.17 140.45Z" fill="#1F6CE0"/>
<path d="M191.17 84.27H161.04L145.97 110.37L161.04 136.47H191.17L206.24 110.37L191.17 84.27Z" fill="#D9DEE2"/>
<path d="M191.17 28.11H161.04L145.97 54.21L161.04 80.31H191.17L206.24 54.21L191.17 28.11Z" fill="#D9DEE2"/>
<path d="M191.22 196.62H161.08L146.02 222.72L161.08 248.82H191.22L206.28 222.72L191.22 196.62Z" fill="#1F6CE0"/>
<path d="M191.22 252.83H161.08L146.02 278.93L161.08 305.03H191.22L206.28 278.93L191.22 252.83Z" fill="#1F6CE0"/>
<path d="M191.22 309H161.08L146.02 335.1L161.08 361.2H191.22L206.28 335.1L191.22 309Z" fill="#3FC399"/>
<path d="M191.22 365.21H161.08L146.02 391.31L161.08 417.41H191.22L206.28 391.31L191.22 365.21Z" fill="#3FC399"/>
<path d="M93.8499 140.45H63.7199L48.6499 166.55L63.7199 192.64H93.8499L108.92 166.55L93.8499 140.45Z" fill="#1F6CE0"/>
<path d="M93.8499 84.27H63.7199L48.6499 110.37L63.7199 136.47H93.8499L108.92 110.37L93.8499 84.27Z" fill="#D9DEE2"/>
<path d="M93.8999 196.62H63.7599L48.7 222.72L63.7599 248.82H93.8999L108.97 222.72L93.8999 196.62Z" fill="#1F6CE0"/>
<path d="M93.8999 252.83H63.7599L48.7 278.93L63.7599 305.03H93.8999L108.97 278.93L93.8999 252.83Z" fill="#1F6CE0"/>
<path d="M93.8999 309H63.7599L48.7 335.1L63.7599 361.2H93.8999L108.97 335.1L93.8999 309Z" fill="#1F6CE0"/>
<path d="M93.8999 365.21H63.7599L48.7 391.31L63.7599 417.41H93.8999L108.97 391.31L93.8999 365.21Z" fill="#D9DEE2"/>
<path d="M191.22 421.42H161.08L146.02 447.52L161.08 473.62H191.22L206.28 447.52L191.22 421.42Z" fill="#D9DEE2"/>
<path d="M288.38 140.45H258.24L243.18 166.55L258.24 192.64H288.38L303.45 166.55L288.38 140.45Z" fill="#4AE68D"/>
<path d="M288.38 84.27H258.24L243.18 110.37L258.24 136.47H288.38L303.45 110.37L288.38 84.27Z" fill="#D9DEE2"/>
<path d="M288.38 28.11H258.24L243.18 54.21L258.24 80.31H288.38L303.45 54.21L288.38 28.11Z" fill="#D9DEE2"/>
<path d="M288.43 196.62H258.29L243.22 222.72L258.29 248.82H288.43L303.49 222.72L288.43 196.62Z" fill="#33A3BB"/>
<path d="M288.43 252.83H258.29L243.22 278.93L258.29 305.03H288.43L303.49 278.93L288.43 252.83Z" fill="#33A3BB"/>
<path d="M288.43 309H258.29L243.22 335.1L258.29 361.2H288.43L303.49 335.1L288.43 309Z" fill="#4AE68D"/>
<path d="M288.43 365.21H258.29L243.22 391.31L258.29 417.41H288.43L303.49 391.31L288.43 365.21Z" fill="#4AE68D"/>
<path d="M385.64 140.45H355.5L340.43 166.55L355.5 192.64H385.64L400.71 166.55L385.64 140.45Z" fill="#4AE68D"/>
<path d="M385.64 84.27H355.5L340.43 110.37L355.5 136.47H385.64L400.71 110.37L385.64 84.27Z" fill="#D9DEE2"/>
<path d="M385.68 196.62H355.55L340.48 222.72L355.55 248.82H385.68L400.75 222.72L385.68 196.62Z" fill="#4AE68D"/>
<path d="M385.68 252.83H355.55L340.48 278.93L355.55 305.03H385.68L400.75 278.93L385.68 252.83Z" fill="#4AE68D"/>
<path d="M385.68 309H355.55L340.48 335.1L355.55 361.2H385.68L400.75 335.1L385.68 309Z" fill="#4AE68D"/>
<path d="M385.68 365.21H355.55L340.48 391.31L355.55 417.41H385.68L400.75 391.31L385.68 365.21Z" fill="#D9DEE2"/>
<path d="M288.43 421.42H258.29L243.22 447.52L258.29 473.62H288.43L303.49 447.52L288.43 421.42Z" fill="#D9DEE2"/>
</svg>
